<?xml version="1.0" encoding="utf-8"?>
<!-- Generator: Adobe Illustrator 25.2.1, SVG Export Plug-In . SVG Version: 6.00 Build 0)  -->
<svg version="1.1" id="Laag_1" xmlns="http://www.w3.org/2000/svg" xmlns:xlink="http://www.w3.org/1999/xlink" x="0px" y="0px"
	 viewBox="0 0 50 50" style="enable-background:new 0 0 50 50;" xml:space="preserve">
<style type="text/css">
	.st0{fill:none;}
	.st1{fill:#E17770;}
</style>
<g id="Group_165" transform="translate(-527 80)">
	<g id="Path_21" transform="translate(527 -80)">
		<path class="st0" d="M25,1.55c12.95,0,23.45,10.5,23.45,23.45S37.95,48.45,25,48.45S1.55,37.95,1.55,25S12.05,1.55,25,1.55z"/>
		<path class="st1" d="M25,5.46C14.22,5.46,5.46,14.22,5.46,25S14.22,44.54,25,44.54S44.54,35.78,44.54,25S35.78,5.46,25,5.46
			 M25,1.55c12.95,0,23.45,10.5,23.45,23.45S37.95,48.45,25,48.45S1.55,37.95,1.55,25S12.05,1.55,25,1.55z"/>
	</g>
	<g id="Group_164" transform="translate(532.253 -74.766)">
		<path id="Rectangle_127" class="st1" d="M6.56,19.38L6.56,19.38c0-0.84,0.68-1.52,1.52-1.52h22.63c0.84,0,1.52,0.68,1.52,1.52l0,0
			c0,0.84-0.68,1.52-1.52,1.52H8.08C7.24,20.89,6.56,20.22,6.56,19.38z"/>
		<path id="Rectangle_128" class="st1" d="M19.4,32.21L19.4,32.21c-0.84,0-1.52-0.68-1.52-1.52V8.06c0-0.84,0.68-1.52,1.52-1.52l0,0
			c0.84,0,1.52,0.68,1.52,1.52v22.63C20.91,31.53,20.23,32.21,19.4,32.21z"/>
	</g>
</g>
</svg>
