<?xml version="1.0" encoding="utf-8"?>
<!-- Generator: Adobe Illustrator 25.2.3, SVG Export Plug-In . SVG Version: 6.00 Build 0)  -->
<svg version="1.1" id="Capa_1" xmlns="http://www.w3.org/2000/svg" xmlns:xlink="http://www.w3.org/1999/xlink" x="0px" y="0px"
	 viewBox="0 0 267.7 355.9" style="enable-background:new 0 0 267.7 355.9;" xml:space="preserve">
<style type="text/css">
	.st0{fill:#595958;stroke:#595958;stroke-width:5;stroke-miterlimit:10;}
</style>
<g>
	<g>
		<g>
			<path class="st0" d="M216.7,40.4c8.3,0,15,6.7,15,15v255.7c0,1.5-0.9,3-2.1,3.5l-0.5,0.2l-0.5,0.3c-0.4,0.2-0.8,0.3-0.9,0.3
				c-0.6,0-1.4-0.2-2.1-0.6l-0.4-0.4l-82.2-69.3l-9.2-7.8l-9.2,7.8l-82.2,69.3l-0.4,0.4l0,0c-0.6,0.4-1.2,0.5-1.9,0.5
				c-0.6,0-1.4-0.1-2.1-0.4c-1.1-0.6-1.9-2.1-1.9-3.5V55.5c0-8.3,6.7-15,15-15H216.7 M216.7,26.1H50.9c-16.2,0-29.4,13.2-29.4,29.4
				v256c0,6.9,4,13.5,10.2,16.5c2.7,1.1,5.4,1.8,8.1,1.8c4.1,0,8-1.3,11.3-3.9l0.4-0.4l82.2-69.4l82.2,69.3l0.4,0.4
				c3.3,2.6,7.3,4,11.4,4c2.6,0,5.5-0.7,8.1-2.2c6.2-2.9,10.2-9.5,10.2-16.5V55.5C246,39.3,232.8,26.1,216.7,26.1L216.7,26.1z"/>
		</g>
	</g>
</g>
</svg>
