<?xml version="1.0" encoding="utf-8"?>
<!-- Generator: Adobe Illustrator 25.2.1, SVG Export Plug-In . SVG Version: 6.00 Build 0)  -->
<svg version="1.1" id="Capa_1" xmlns="http://www.w3.org/2000/svg" xmlns:xlink="http://www.w3.org/1999/xlink" x="0px" y="0px"
	 viewBox="0 0 477.9 477.9" style="enable-background:new 0 0 477.9 477.9;" xml:space="preserve">
<style type="text/css">
	.st0{fill:#595958;}
</style>
<g>
	<g>
		<path class="st0" d="M426.7,0H51.2C22.9,0,0,22.9,0,51.2v273.1c0,28.3,22.9,51.2,51.2,51.2h60.6l-9.3,83.5
			c-1,9.4,5.7,17.8,15.1,18.8c4.8,0.5,9.7-1,13.3-4.3l108.9-98h186.9c28.3,0,51.2-22.9,51.2-51.2V51.2C477.9,22.9,454.9,0,426.7,0z
			 M443.7,324.3c0,9.4-7.6,17.1-17.1,17.1H233.2c-4.2,0-8.3,1.6-11.4,4.4l-80.5,72.4l6.4-57.8c1-9.4-5.7-17.8-15.1-18.9
			c-0.6-0.1-1.3-0.1-1.9-0.1H51.2c-9.4,0-17.1-7.6-17.1-17.1V51.2c0-9.4,7.6-17.1,17.1-17.1h375.5c9.4,0,17.1,7.6,17.1,17.1
			L443.7,324.3L443.7,324.3z"/>
	</g>
</g>
</svg>
