<?xml version="1.0" encoding="utf-8"?>
<!-- Generator: Adobe Illustrator 25.2.1, SVG Export Plug-In . SVG Version: 6.00 Build 0)  -->
<svg version="1.1" id="Laag_1" xmlns="http://www.w3.org/2000/svg" xmlns:xlink="http://www.w3.org/1999/xlink" x="0px" y="0px"
	 viewBox="0 0 495.1 549.7" style="enable-background:new 0 0 495.1 549.7;" xml:space="preserve">
<style type="text/css">
	.st0{fill:none;stroke:#595958;stroke-width:34;stroke-miterlimit:10;}
</style>
<path class="st0" d="M455.3,61.6v236.8c-97.9,85.8-195.7-40.5-293.6-29.4c-20.9,2.4-41.8,11-62.7,29.4V61.6
	c20.9-18.3,41.8-27,62.7-29.4C259.6,21.1,357.4,147.5,455.3,61.6z"/>
<path class="st0" d="M99,49.8v453.5c0,11.9-7.1,22.1-17.2,26.7c-3.7,1.7-7.7,2.6-12,2.6c-16.2,0-29.3-13.1-29.3-29.3V49.8
	c0-16.1,13.1-29.2,29.2-29.2c4.3,0,8.3,0.9,12,2.6c3.2,1.5,6.2,3.5,8.7,6C95.7,34.4,99,41.8,99,49.8z"/>
</svg>
