<?xml version="1.0" encoding="utf-8"?>
<!-- Generator: Adobe Illustrator 25.2.1, SVG Export Plug-In . SVG Version: 6.00 Build 0)  -->
<svg version="1.1" id="Layer_1" xmlns="http://www.w3.org/2000/svg" xmlns:xlink="http://www.w3.org/1999/xlink" x="0px" y="0px"
	 viewBox="0 0 358.2 330" style="enable-background:new 0 0 358.2 330;" xml:space="preserve">
<style type="text/css">
	.st0{fill:#E0776F;}
</style>
<path class="st0" d="M225.3,195.7h-131c-52,0-94.2,42.2-94.2,94.2v13.7h319.3v-13.7C319.5,237.9,277.3,195.7,225.3,195.7z"/>
<circle class="st0" cx="159.8" cy="93.7" r="77"/>
<path class="st0" d="M348.7,128.5h-30.9V96.4c0-5.1-4.2-9.3-9.3-9.3c-5.1,0-9.3,4.2-9.3,9.3v32.2h-30.9c-5.1,0-9.3,4.2-9.3,9.3
	c0,5.1,4.2,9.3,9.3,9.3h30.9v29.6c0,5.1,4.2,9.3,9.3,9.3c5.1,0,9.3-4.2,9.3-9.3v-29.6h30.9c5.1,0,9.3-4.2,9.3-9.3
	C358,132.7,353.8,128.5,348.7,128.5z"/>
</svg>
