<?xml version="1.0" encoding="utf-8"?>
<!-- Generator: Adobe Illustrator 25.2.1, SVG Export Plug-In . SVG Version: 6.00 Build 0)  -->
<svg version="1.1" id="Capa_1" xmlns="http://www.w3.org/2000/svg" xmlns:xlink="http://www.w3.org/1999/xlink" x="0px" y="0px"
	 viewBox="0 0 477.5 447" style="enable-background:new 0 0 477.5 447;" xml:space="preserve">
<style type="text/css">
	.st0{fill:#FF505D;stroke:#FF505D;stroke-width:15;stroke-linejoin:round;stroke-miterlimit:10;}
</style>
<g>
	<g>
		<g>
			<path class="st0" d="M140,18.7c15.6,0,30.7,3.1,45,9.2c14.8,6.3,27.9,15.5,38.9,27.3l0,0l0,0l8,8.4l6.9,7.3l6.9-7.3l8-8.4l0,0
				l0,0c21.6-23.3,52.2-36.5,83.9-36.5c31.6,0,62.2,13.3,83.8,36.5c22.3,24,34.5,55.3,34.5,88.1s-12.2,64-34.5,88L243.7,418.6
				l-0.5,0.5c-1.2,1.1-2.8,1.7-4.5,1.7c-1.9,0-3.6-0.8-4.9-2.1L56.1,231.3c-22.3-24-34.5-55.2-34.5-88s12.2-64.1,34.5-88.1l0,0l0,0
				c1.9-2,3.9-4,6-6C83.4,29.5,111.1,18.7,140,18.7 M140,9.2c-30.2,0-60.5,10.9-84.4,33.1c-2.2,2.1-4.4,4.2-6.5,6.5
				c-49.4,53.3-49.4,135.7,0,188.9L227,425.3c3.2,3.3,7.5,5,11.8,5c4,0,8-1.4,11.1-4.4c0.2-0.2,0.4-0.4,0.7-0.7l177.7-187.5
				c49.4-53.2,49.4-135.6,0-188.9C404.9,23.6,372,9.2,337.6,9.2s-67.3,14.3-90.8,39.6l-8,8.4l-8-8.4C206.4,22.5,173.2,9.2,140,9.2
				L140,9.2z"/>
		</g>
	</g>
</g>
</svg>
