<?xml version="1.0" encoding="utf-8"?>
<!-- Generator: Adobe Illustrator 25.2.1, SVG Export Plug-In . SVG Version: 6.00 Build 0)  -->
<svg version="1.1" id="Layer_1" xmlns="http://www.w3.org/2000/svg" xmlns:xlink="http://www.w3.org/1999/xlink" x="0px" y="0px"
	 viewBox="0 0 330 330" style="enable-background:new 0 0 330 330;" xml:space="preserve">
<style type="text/css">
	.st0{fill:#E0776F;}
</style>
<g id="XMLID_2_">
	<path id="XMLID_4_" class="st0" d="M259.4,199.4c-5.9,5.9-5.9,15.4,0,21.2c2.9,2.9,6.8,4.4,10.6,4.4s7.7-1.5,10.6-4.4l45-45
		c0.3-0.3,0.7-0.7,1-1.1c0.1-0.1,0.1-0.2,0.2-0.3c0.2-0.3,0.5-0.6,0.7-0.9c0.1-0.1,0.1-0.2,0.2-0.3c0.2-0.3,0.4-0.7,0.6-1
		c0-0.1,0.1-0.1,0.1-0.2c0.2-0.4,0.4-0.7,0.5-1.1c0,0,0-0.1,0-0.1c0.2-0.4,0.3-0.8,0.4-1.2c0,0,0-0.1,0-0.1c0.1-0.4,0.2-0.8,0.3-1.3
		c0-0.1,0-0.2,0.1-0.4c0.1-0.4,0.1-0.7,0.2-1.1c0.1-0.5,0.1-1,0.1-1.5s0-1-0.1-1.5c0-0.4-0.1-0.7-0.2-1.1c0-0.1,0-0.3-0.1-0.4
		c-0.1-0.4-0.2-0.8-0.3-1.3c0-0.1,0-0.1,0-0.2c-0.1-0.4-0.3-0.8-0.4-1.2c0,0,0-0.1-0.1-0.1c-0.2-0.4-0.3-0.8-0.5-1.1
		c0-0.1-0.1-0.1-0.1-0.2c-0.2-0.3-0.4-0.7-0.6-1c-0.1-0.1-0.1-0.2-0.2-0.3c-0.2-0.3-0.4-0.6-0.7-0.9c-0.1-0.1-0.1-0.2-0.2-0.3
		c-0.3-0.4-0.6-0.7-1-1.1l-45-45c-5.9-5.9-15.4-5.9-21.2,0c-5.9,5.9-5.9,15.4,0,21.2l19.4,19.4H105c-8.3,0-15,6.7-15,15
		s6.7,15,15,15h173.8L259.4,199.4z"/>
	<path id="XMLID_5_" class="st0" d="M0,165c0,67.7,55,122.7,122.7,122.7c40.8,0,78.9-20.2,101.7-54.1c4.6-6.9,2.8-16.2-4-20.8
		c-6.9-4.6-16.2-2.8-20.8,4c-17.3,25.6-46,40.9-76.9,40.9C71.6,257.7,30,216.1,30,165s41.6-92.7,92.7-92.7c30.9,0,59.7,15.4,77,41.1
		c4.6,6.9,13.9,8.7,20.8,4.1c6.9-4.6,8.7-13.9,4.1-20.8c-22.9-34-61-54.3-101.9-54.3C55,42.3,0,97.3,0,165z"/>
</g>
</svg>
